<?xml version="1.0" encoding="UTF-8"?>
<svg id="Layer_1" data-name="Layer 1" xmlns="http://www.w3.org/2000/svg" viewBox="0 0 312.73 307.92">
  <defs>
    <style>
      .cls-1 {
        fill: #2e499f;
        stroke: #fff;
        stroke-width: 4px;
      }

      .cls-1, .cls-2 {
        stroke-miterlimit: 10;
      }

      .cls-2 {
        fill: none;
        stroke: #2e499f;
        stroke-width: 2px;
      }
    </style>
  </defs>
  <g>
    <polygon class="cls-2" points="265.87 37.92 311.61 190.77 202.11 306.81 46.86 270 1.12 117.14 110.63 1.11 265.87 37.92"/>
    <polygon class="cls-2" points="261.91 39.09 309.14 187.66 203.53 302.48 50.7 268.72 3.46 120.15 109.07 5.33 261.91 39.09"/>
    <polygon class="cls-2" points="257.94 40.26 306.67 184.55 204.96 298.15 54.53 267.45 5.8 123.16 107.51 9.56 257.94 40.26"/>
    <polygon class="cls-2" points="253.97 41.43 304.2 181.43 206.39 293.81 58.36 266.18 8.14 126.17 105.94 13.79 253.97 41.43"/>
    <polygon class="cls-2" points="250.01 42.59 301.72 178.32 207.82 289.48 62.19 264.91 10.48 129.18 104.38 18.02 250.01 42.59"/>
    <polygon class="cls-2" points="246.04 43.76 299.25 175.21 209.25 285.15 66.03 263.63 12.81 132.19 102.82 22.25 246.04 43.76"/>
    <polygon class="cls-2" points="242.07 44.93 296.78 172.1 210.67 280.81 69.86 262.36 15.15 135.2 101.26 26.48 242.07 44.93"/>
    <polygon class="cls-2" points="238.11 46.1 294.31 168.98 212.1 276.48 73.69 261.09 17.49 138.2 99.7 30.71 238.11 46.1"/>
    <polygon class="cls-2" points="234.14 47.26 291.84 165.87 213.53 272.15 77.53 259.82 19.83 141.21 98.14 34.94 234.14 47.26"/>
    <polygon class="cls-2" points="230.18 48.43 289.37 162.76 214.96 267.81 81.36 258.55 22.17 144.22 96.58 39.16 230.18 48.43"/>
    <polygon class="cls-2" points="230.91 54.96 284.44 166.91 209.2 265.28 80.44 251.69 26.91 139.74 102.15 41.37 230.91 54.96"/>
    <polygon class="cls-2" points="231.65 61.48 279.52 171.07 203.45 262.75 79.51 244.84 31.65 135.26 107.71 43.58 231.65 61.48"/>
    <polygon class="cls-2" points="232.39 68 274.59 175.22 197.7 260.22 78.59 237.99 36.39 130.78 113.28 45.78 232.39 68"/>
    <polygon class="cls-2" points="233.12 74.53 269.67 179.37 191.94 257.68 77.67 231.14 41.13 126.3 118.85 47.99 233.12 74.53"/>
    <polygon class="cls-2" points="233.86 81.05 264.74 183.53 186.19 255.15 76.75 224.29 45.86 121.82 124.42 50.19 233.86 81.05"/>
    <polygon class="cls-2" points="234.6 87.57 259.82 187.68 180.43 252.62 75.83 217.44 50.6 117.34 129.99 52.4 234.6 87.57"/>
    <polygon class="cls-2" points="235.33 94.1 254.89 191.84 174.68 250.08 74.9 210.59 55.34 112.86 135.56 54.61 235.33 94.1"/>
    <polygon class="cls-2" points="236.07 100.62 249.97 195.99 168.93 247.55 73.98 203.74 60.08 108.37 141.13 56.81 236.07 100.62"/>
    <polygon class="cls-2" points="236.81 107.14 245.04 200.15 163.17 245.02 73.06 196.89 64.82 103.89 146.7 59.02 236.81 107.14"/>
  </g>
  <path class="cls-1" d="m85.74,111.51c.24.7,1.18.94,1.58,1.04,7.59,1.95,21.54.98,28.21,1.8,13.84,1.7,22.29,14.27,22.7,14.89,4.88,7.47,1.95,10.86,6.38,21.28,1.81,4.26,7.79,18.32,19.15,21.99,16.62,5.37,34.96-14.66,39.72-19.86,6.94-7.58,18.93-20.68,15.6-34.04-3.23-12.97-18.98-18.52-36.88-24.82-9.41-3.31-30.77-10.54-56.03-4.96-12.48,2.76-20.87,7.53-26.24,10.64-3.96,2.29-15.27,8.85-14.18,12.06Z"/>
  <path class="cls-1" d="m124.75,100.87c-.82,2.67,7.63,4.34,15.6,13.48,7.31,8.37,5.7,13.27,15.6,29.79,6.4,10.68,8.92,11.71,9.93,12.06,9.38,3.2,21.7-7.64,27.66-17.02,4.52-7.12,9.25-19.47,4.96-23.4-3.74-3.43-10.77,2.79-29.79,4.26-9,.69-13.74.99-17.73-2.13-6.25-4.88-3.5-12.49-9.93-17.02-5.96-4.2-15.49-2.69-16.31,0Z"/>
  <path class="cls-1" d="m153.12,95.91c-1.77,2.75.66,7.41,2.84,9.93.76.88,3.56,3.89,12.77,5.67,4.02.78,16.69,3.23,18.44-.71,1.47-3.32-5.53-9.49-9.22-12.06-6.82-4.74-13.48-4.93-16.31-4.96-3.54-.05-7.08-.1-8.51,2.13Z"/>
  <path class="cls-1" d="m81.49,124.27c1.4-.89,2.86-1.44,6.38-2.13,4.51-.88,9.07-1.76,15.6-1.42,5.78.31,11.01.58,17.02,3.55,2.32,1.14,9.14,4.62,13.48,12.06,4.49,7.72.92,10.46,5.67,21.28,3.22,7.32,5.21,11.85,9.93,14.18,2.57,1.27,6.65,2.25,9.93,6.38.18.23.94,1.21,1.69,2.61,2.5,4.73,2.27,9.63,1.86,14.41-.96,11.12-1.44,16.68-3.55,18.44-3.71,3.1-9.35,1.76-16.31,0-9.63-2.43-13.55-5.69-31.21-15.6-13.03-7.31-14.36-7.47-17.02-10.64-6.02-7.15-3.28-11.11-8.51-24.82-6.14-16.12-13.71-20.58-11.35-29.08.28-1.02,1.73-6.24,6.38-9.22Z"/>
  <path class="cls-1" d="m174.35,180.28c3.82-3.42,6.22-2.46,14.6-5.78,4.87-1.93,12.43-4.91,18.57-10.97,4.86-4.79,7.57-10.53,12.99-22.02,4.01-8.48,4.4-11,5.79-10.97,3.76.07,9.32,18.77,5.57,36.63-.87,4.13-3.85,18.28-15.52,27.84-6.22,5.09-7.57,2.88-22.12,11.16-12.49,7.11-15.88,11.25-20.07,9.63-6.59-2.55-6.6-16.05-6.6-17.33,0-2.31-.01-12.11,6.78-18.19Z"/>
</svg>