<?xml version="1.0" encoding="utf-8"?>
<!-- Generator: Adobe Illustrator 28.1.0, SVG Export Plug-In . SVG Version: 6.00 Build 0)  -->
<svg version="1.1" xmlns="http://www.w3.org/2000/svg" xmlns:xlink="http://www.w3.org/1999/xlink" x="0px" y="0px"
	 viewBox="0 0 312.7 307.9" style="enable-background:new 0 0 312.7 307.9;" xml:space="preserve">
<style type="text/css">
	.st0{fill:#2E499F;stroke:#FFFFFF;stroke-width:2;stroke-miterlimit:10;}
	.st1{fill:#FFFFFF;stroke:#2E499F;stroke-width:4;stroke-miterlimit:10;}
</style>
<g id="Layer_2">
</g>
<g id="Layer_1">
	<g>
		<polygon class="st0" points="265.9,37.9 311.6,190.8 202.1,306.8 46.9,270 1.1,117.1 110.6,1.1 		"/>
		<polygon class="st0" points="261.9,39.1 309.1,187.7 203.5,302.5 50.7,268.7 3.5,120.2 109.1,5.3 		"/>
		<polygon class="st0" points="257.9,40.3 306.7,184.6 205,298.1 54.5,267.5 5.8,123.2 107.5,9.6 		"/>
		<polygon class="st0" points="254,41.4 304.2,181.4 206.4,293.8 58.4,266.2 8.1,126.2 105.9,13.8 		"/>
		<polygon class="st0" points="250,42.6 301.7,178.3 207.8,289.5 62.2,264.9 10.5,129.2 104.4,18 		"/>
		<polygon class="st0" points="246,43.8 299.2,175.2 209.2,285.1 66,263.6 12.8,132.2 102.8,22.2 		"/>
		<polygon class="st0" points="242.1,44.9 296.8,172.1 210.7,280.8 69.9,262.4 15.1,135.2 101.3,26.5 		"/>
		<polygon class="st0" points="238.1,46.1 294.3,169 212.1,276.5 73.7,261.1 17.5,138.2 99.7,30.7 		"/>
		<polygon class="st0" points="234.1,47.3 291.8,165.9 213.5,272.1 77.5,259.8 19.8,141.2 98.1,34.9 		"/>
		<polygon class="st0" points="230.2,48.4 289.4,162.8 215,267.8 81.4,258.5 22.2,144.2 96.6,39.2 		"/>
		<polygon class="st0" points="230.9,55 284.4,166.9 209.2,265.3 80.4,251.7 26.9,139.7 102.2,41.4 		"/>
		<polygon class="st0" points="231.6,61.5 279.5,171.1 203.4,262.8 79.5,244.8 31.6,135.3 107.7,43.6 		"/>
		<polygon class="st0" points="232.4,68 274.6,175.2 197.7,260.2 78.6,238 36.4,130.8 113.3,45.8 		"/>
		<polygon class="st0" points="233.1,74.5 269.7,179.4 191.9,257.7 77.7,231.1 41.1,126.3 118.8,48 		"/>
		<polygon class="st0" points="233.9,81.1 264.7,183.5 186.2,255.1 76.8,224.3 45.9,121.8 124.4,50.2 		"/>
		<polygon class="st0" points="234.6,87.6 259.8,187.7 180.4,252.6 75.8,217.4 50.6,117.3 130,52.4 		"/>
		<polygon class="st0" points="235.3,94.1 254.9,191.8 174.7,250.1 74.9,210.6 55.3,112.9 135.6,54.6 		"/>
		<polygon class="st0" points="236.1,100.6 250,196 168.9,247.6 74,203.7 60.1,108.4 141.1,56.8 		"/>
		<polygon class="st0" points="236.8,107.1 245,200.1 163.2,245 73.1,196.9 64.8,103.9 146.7,59 		"/>
	</g>
	<path class="st1" d="M85.7,111.5c0.2,0.7,1.2,0.9,1.6,1c7.6,1.9,21.5,1,28.2,1.8c13.8,1.7,22.3,14.3,22.7,14.9
		c4.9,7.5,1.9,10.9,6.4,21.3c1.8,4.3,7.8,18.3,19.1,22c16.6,5.4,35-14.7,39.7-19.9c6.9-7.6,18.9-20.7,15.6-34
		c-3.2-13-19-18.5-36.9-24.8c-9.4-3.3-30.8-10.5-56-5c-12.5,2.8-20.9,7.5-26.2,10.6C96,101.8,84.7,108.3,85.7,111.5L85.7,111.5z"/>
	<path class="st1" d="M124.8,100.9c-0.8,2.7,7.6,4.3,15.6,13.5c7.3,8.4,5.7,13.3,15.6,29.8c6.4,10.7,8.9,11.7,9.9,12.1
		c9.4,3.2,21.7-7.6,27.7-17c4.5-7.1,9.2-19.5,5-23.4c-3.7-3.4-10.8,2.8-29.8,4.3c-9,0.7-13.7,1-17.7-2.1c-6.2-4.9-3.5-12.5-9.9-17
		C135.1,96.7,125.6,98.2,124.8,100.9L124.8,100.9z"/>
	<path class="st1" d="M153.1,95.9c-1.8,2.8,0.7,7.4,2.8,9.9c0.8,0.9,3.6,3.9,12.8,5.7c4,0.8,16.7,3.2,18.4-0.7
		c1.5-3.3-5.5-9.5-9.2-12.1c-6.8-4.7-13.5-4.9-16.3-5C158.1,93.7,154.6,93.7,153.1,95.9L153.1,95.9z"/>
	<path class="st1" d="M81.5,124.3c1.4-0.9,2.9-1.4,6.4-2.1c4.5-0.9,9.1-1.8,15.6-1.4c5.8,0.3,11,0.6,17,3.6
		c2.3,1.1,9.1,4.6,13.5,12.1c4.5,7.7,0.9,10.5,5.7,21.3c3.2,7.3,5.2,11.9,9.9,14.2c2.6,1.3,6.6,2.2,9.9,6.4c0.2,0.2,0.9,1.2,1.7,2.6
		c2.5,4.7,2.3,9.6,1.9,14.4c-1,11.1-1.4,16.7-3.6,18.4c-3.7,3.1-9.4,1.8-16.3,0c-9.6-2.4-13.6-5.7-31.2-15.6
		c-13-7.3-14.4-7.5-17-10.6c-6-7.1-3.3-11.1-8.5-24.8c-6.1-16.1-13.7-20.6-11.3-29.1C75.4,132.5,76.8,127.3,81.5,124.3L81.5,124.3z"
		/>
	<path class="st1" d="M174.4,180.3c3.8-3.4,6.2-2.5,14.6-5.8c4.9-1.9,12.4-4.9,18.6-11c4.9-4.8,7.6-10.5,13-22c4-8.5,4.4-11,5.8-11
		c3.8,0.1,9.3,18.8,5.6,36.6c-0.9,4.1-3.9,18.3-15.5,27.8c-6.2,5.1-7.6,2.9-22.1,11.2c-12.5,7.1-15.9,11.2-20.1,9.6
		c-6.6-2.6-6.6-16.1-6.6-17.3C167.6,196.2,167.6,186.4,174.4,180.3L174.4,180.3z"/>
</g>
</svg>
